<?xml version="1.0" encoding="utf-8"?>
<!-- Generator: Adobe Illustrator 24.2.1, SVG Export Plug-In . SVG Version: 6.00 Build 0)  -->
<svg version="1.1" id="Livello_1" xmlns="http://www.w3.org/2000/svg" xmlns:xlink="http://www.w3.org/1999/xlink" x="0px" y="0px"
	 viewBox="0 0 89.9 89.9" style="enable-background:new 0 0 89.9 89.9;" xml:space="preserve">
<style type="text/css">
	.st0{fill:#3A543C;}
</style>
<g id="Livello_3">
	<g>
		<path class="st0" d="M45,67.9C32.3,67.9,22,57.6,22,45S32.3,22,45,22S67.9,32.3,67.9,45S57.6,67.9,45,67.9z M45,31
			C37.3,31,31,37.3,31,45c0,7.7,6.2,13.9,13.9,13.9c7.7,0,13.9-6.2,13.9-13.9C58.9,37.3,52.6,31,45,31z"/>
	</g>
	<g>
		<path class="st0" d="M64.4,89.9H25.5C11.5,89.9,0,78.5,0,64.4V25.5C0,11.5,11.5,0,25.5,0h38.8c14.1,0,25.5,11.5,25.5,25.5v38.8
			C89.9,78.5,78.5,89.9,64.4,89.9z M25.5,9C16.4,9,9,16.4,9,25.5v38.8c0,9.1,7.4,16.5,16.5,16.5h38.8c9.1,0,16.5-7.4,16.5-16.5V25.5
			C80.9,16.4,73.5,9,64.4,9H25.5z"/>
	</g>
	<circle class="st0" cx="68.6" cy="21.4" r="5.7"/>
</g>
</svg>
