<?xml version="1.0" encoding="utf-8"?>
<!-- Generator: Adobe Illustrator 24.2.1, SVG Export Plug-In . SVG Version: 6.00 Build 0)  -->
<svg version="1.1" id="Livello_1" xmlns="http://www.w3.org/2000/svg" xmlns:xlink="http://www.w3.org/1999/xlink" x="0px" y="0px"
	 viewBox="0 0 145.4 146.2" style="enable-background:new 0 0 145.4 146.2;" xml:space="preserve">
<style type="text/css">
	.st0{fill:#3A543C;}
</style>
<g id="Livello_2_1_">
	<g id="Livello_3">
		<g>
			<path class="st0" d="M120.2,117.3H10.3c-5.8,0-10.3-6.2-10.3-14.1V14.1C0,6.2,4.5,0,10.3,0h109.9c5.8,0,10.3,6.2,10.3,14.1v89.2
				C130.5,111.1,126,117.3,120.2,117.3z M10.3,6C8.3,6,6,9.5,6,14.1v89.2c0,4.5,2.3,8.1,4.3,8.1h109.9c2,0,4.3-3.5,4.3-8.1V14.1
				c0-4.6-2.3-8.1-4.3-8.1H10.3z"/>
		</g>
		<g>
			<path class="st0" d="M137.9,31.9h-6v-3.4c0-4.6-2.3-8.1-4.3-8.1h-0.2v-6h0.2c5.8,0,10.3,6.2,10.3,14.1V31.9z"/>
		</g>
		<g>
			<path class="st0" d="M17.9,131.7h-0.2c-5.8,0-10.3-6.2-10.3-14.1v-3.4h6v3.4c0,4.6,2.3,8.1,4.3,8.1h0.2V131.7z"/>
		</g>
		<g>
			<path class="st0" d="M120.2,117.3H17.9v-6h102.3c2,0,4.3-3.5,4.3-8.1V31.9h6v71.4C130.5,111.1,126,117.3,120.2,117.3z"/>
		</g>
		<g>
			<path class="st0" d="M120.2,117.3H17.9v-6h102.3c2,0,4.3-3.5,4.3-8.1V31.9h6v71.4C130.5,111.1,126,117.3,120.2,117.3z"/>
		</g>
		<g>
			<path class="st0" d="M135.1,146.2H25.2c-5.8,0-10.3-6.2-10.3-14.1v-6.3h112.8c2,0,4.3-3.5,4.3-8.1V28.9h3.2
				c5.8,0,10.3,6.2,10.3,14.1v89.1C145.4,140,140.9,146.2,135.1,146.2z M20.9,131.7v0.3c0,4.6,2.3,8.1,4.3,8.1h109.9
				c2,0,4.3-3.5,4.3-8.1V42.9c0-2.4-0.6-4.5-1.5-5.9v80.6c0,7.9-4.5,14.1-10.3,14.1H20.9z"/>
		</g>
	</g>
</g>
</svg>
